<?xml version="1.0" standalone="no"?>
<!DOCTYPE svg PUBLIC "-//W3C//DTD SVG 20010904//EN"
 "http://www.w3.org/TR/2001/REC-SVG-20010904/DTD/svg10.dtd">
<svg version="1.0" xmlns="http://www.w3.org/2000/svg"
 width="136.000000pt" height="130.000000pt" viewBox="0 0 136.000000 130.000000"
 preserveAspectRatio="xMidYMid meet">

<g transform="translate(0.000000,130.000000) scale(0.100000,-0.100000)"
fill="#000000" stroke="none">
<path d="M40 630 l0 -600 625 0 625 0 0 600 0 600 -625 0 -625 0 0 -600z
m1180 5 l0 -515 -550 0 -550 0 0 515 0 515 550 0 550 0 0 -515z"/>
<path d="M190 647 l0 -447 90 0 90 0 0 212 0 213 213 -213 212 -212 100 1 c55
0 117 3 138 7 l37 7 -440 440 -440 440 0 -448z m477 -122 c128 -126 233 -236
233 -242 0 -23 -56 -14 -97 16 -21 15 -111 97 -199 181 -87 84 -169 157 -181
163 -33 15 -72 0 -84 -31 -6 -15 -14 -90 -19 -167 -5 -77 -12 -148 -15 -158
-11 -28 -29 -14 -37 29 -8 48 -10 530 -2 562 6 20 12 17 87 -50 45 -40 186
-176 314 -303z"/>
<path d="M807 921 c-81 -83 -147 -156 -147 -163 0 -7 27 -38 61 -70 l61 -57
89 92 90 92 -3 -199 -3 -198 93 -85 92 -86 0 410 0 409 -93 2 -94 2 -146 -149z
m248 75 c18 -13 20 -30 23 -193 2 -98 -1 -225 -6 -283 l-9 -105 -17 39 c-13
28 -20 81 -25 187 -11 220 -29 236 -166 149 -84 -53 -90 -56 -100 -40 -15 24
91 144 198 224 53 39 73 44 102 22z"/>
</g>
</svg>
