<?xml version="1.0" encoding="UTF-8"?>
<svg version="1.1" xmlns="http://www.w3.org/2000/svg" width="129" height="124">
<path d="M0 0 C42.57 0 85.14 0 129 0 C129 40.92 129 81.84 129 124 C86.43 124 43.86 124 0 124 C0 83.08 0 42.16 0 0 Z " fill="#FBFBFB" transform="translate(0,0)"/>
<path d="M0 0 C42.57 0 85.14 0 129 0 C129 40.92 129 81.84 129 124 C86.43 124 43.86 124 0 124 C0 83.08 0 42.16 0 0 Z M10 10 C10 43.99 10 77.98 10 113 C46.3 113 82.6 113 120 113 C120 79.01 120 45.02 120 10 C83.7 10 47.4 10 10 10 Z " fill="#080808" transform="translate(0,0)"/>
<path d="M0 0 C4.58401077 3.92915209 8.94715008 7.80774946 13.17553711 12.07788086 C13.74892319 12.6527272 14.32230927 13.22757355 14.91307068 13.81983948 C16.14562011 15.0561653 17.37701413 16.29364392 18.60734367 17.53217888 C20.56097151 19.49869333 22.51781353 21.46195932 24.47547913 23.42445374 C29.3355752 28.29784537 34.19020073 33.17667468 39.04498291 38.05535889 C43.1552159 42.18541059 47.26755042 46.31334844 51.3826313 50.43857002 C53.2989145 52.36127729 55.21213054 54.28699993 57.12522888 56.21287537 C62.41053102 61.52021644 67.66921503 66.79444916 73.39759827 71.6305542 C76.23188993 74.05279872 78.86330162 76.67916475 81.5 79.3125 C82.03625 79.83650391 82.5725 80.36050781 83.125 80.90039062 C84.45717501 82.22746802 85.73407049 83.60958742 87 85 C87 85.66 87 86.32 87 87 C85.10750837 87.22906856 83.21497748 87.45781685 81.32226562 87.68505859 C79.83608914 87.88661112 78.35400662 88.12339367 76.88085938 88.40478516 C69.80523254 89.72942351 63.34193405 90.28701168 57.17236328 86.06494141 C50.9066428 80.68621299 44.93644723 74.63690996 40 68 C40 67.34 40 66.68 40 66 C39.12927856 65.61714844 39.12927856 65.61714844 38.2409668 65.2265625 C35.77123023 63.874786 34.12670356 62.36983874 32.14453125 60.375 C31.44005859 59.66859375 30.73558594 58.9621875 30.00976562 58.234375 C28.92211914 57.12835938 28.92211914 57.12835938 27.8125 56 C27.07580078 55.26265625 26.33910156 54.5253125 25.58007812 53.765625 C20.14050904 48.28101809 20.14050904 48.28101809 19 46 C18.67 59.86 18.34 73.72 18 88 C12.06 88 6.12 88 0 88 C0 58.96 0 29.92 0 0 Z " fill="#060606" transform="translate(17,17)"/>
<path d="M0 0 C0 26.73 0 53.46 0 81 C-4.14609172 77.4462071 -8.26116491 73.90439246 -12.3125 70.25 C-13.57513672 69.11304687 -13.57513672 69.11304687 -14.86328125 67.953125 C-18.9888768 64.1820139 -18.9888768 64.1820139 -19.22705078 60.28466797 C-19.22673351 58.68713948 -19.21539982 57.08958973 -19.1953125 55.4921875 C-19.1924826 54.65156769 -19.18965271 53.81094788 -19.18673706 52.94485474 C-19.1755243 50.25475954 -19.15041803 47.5649949 -19.125 44.875 C-19.1149716 43.05339022 -19.10584551 41.23177523 -19.09765625 39.41015625 C-19.07558142 34.93997642 -19.04104434 30.47004429 -19 26 C-21.10729942 28.08024422 -23.21088873 30.16402239 -25.3125 32.25 C-26.20485352 33.12978516 -26.20485352 33.12978516 -27.11523438 34.02734375 C-29.51621276 36.41490884 -31.77482096 38.6958366 -33.79296875 41.421875 C-34.19128906 41.94265625 -34.58960937 42.4634375 -35 43 C-37 43 -37 43 -39.25 40.9375 C-42.31390251 37.75469978 -45.16219029 34.38391742 -48 31 C-46.64696809 28.02799402 -45.10519203 25.79274498 -42.91796875 23.375 C-40.90150523 21.13228896 -38.90627028 18.88793038 -36.97119141 16.57421875 C-34.80699409 13.99543001 -32.56790186 11.49917721 -30.3125 9 C-29.25192383 7.69482422 -29.25192383 7.69482422 -28.16992188 6.36328125 C-19.2755282 -3.23151769 -15.15099668 0 0 0 Z " fill="#050505" transform="translate(112,19)"/>
<path d="M0 0 C2.33682418 1.99603732 4.66973558 3.99632567 7 6 C7.66 6.56460938 8.32 7.12921875 9 7.7109375 C12.87097479 11.05267746 16.54331765 14.50453941 20.12301636 18.15518188 C21.94050742 19.94152694 23.81545631 21.60570396 25.75048828 23.26318359 C29.8129303 26.79696363 33.6729247 30.49554247 37.4921875 34.2890625 C38.16420197 34.95537689 38.83621643 35.62169128 39.52859497 36.30819702 C40.93319608 37.70343344 42.33641257 39.10006507 43.73828125 40.49804688 C45.88357838 42.63353918 48.03931423 44.7581315 50.1953125 46.8828125 C51.5657598 48.24673738 52.93557431 49.61129844 54.3046875 50.9765625 C54.94735565 51.60688385 55.5900238 52.2372052 56.25216675 52.8866272 C59.40436558 56.0547341 61.75323245 58.5813553 63 63 C58.73847811 63.47169517 56.00075692 63.39844717 52.6328125 60.75390625 C51.44647998 59.70916499 50.27807188 58.64383917 49.125 57.5625 C48.48933105 56.99063965 47.85366211 56.4187793 47.19873047 55.82958984 C41.28408262 50.43762513 35.63394672 44.7580426 30.07470703 39.00219727 C22.56567371 30.4710638 22.56567371 30.4710638 12.88696289 25.78588867 C10.74131346 26.0349211 10.74131346 26.0349211 8 27 C6.15215718 34.30632414 5.43987052 41.42815277 4.9375 48.9375 C4.78368768 51.17604135 4.62632149 53.41434229 4.46484375 55.65234375 C4.36610962 57.12175415 4.36610962 57.12175415 4.26538086 58.62084961 C4 61 4 61 3 63 C2.01 63 1.02 63 0 63 C-1.05636843 59.83089472 -1.12684465 57.58752355 -1.12939453 54.25927734 C-1.13254669 53.08150726 -1.13569885 51.90373718 -1.13894653 50.6902771 C-1.1369223 49.41834503 -1.13489807 48.14641296 -1.1328125 46.8359375 C-1.13376923 45.53298737 -1.13472595 44.23003723 -1.13571167 42.88760376 C-1.1371852 40.13208835 -1.13504448 37.37660539 -1.13037109 34.62109375 C-1.12466278 31.08224608 -1.12796192 27.54347406 -1.13394356 24.00462914 C-1.1384155 20.63589244 -1.13528972 17.26717635 -1.1328125 13.8984375 C-1.13483673 12.62245697 -1.13686096 11.34647644 -1.13894653 10.03182983 C-1.13579437 8.86036407 -1.13264221 7.68889832 -1.12939453 6.48193359 C-1.12859894 5.44507416 -1.12780334 4.40821472 -1.12698364 3.3399353 C-1 1 -1 1 0 0 Z " fill="#F8F8F8" transform="translate(25,35)"/>
<path d="M0 0 C42.57 0 85.14 0 129 0 C129 40.92 129 81.84 129 124 C86.43 124 43.86 124 0 124 C0 83.08 0 42.16 0 0 Z M2 2 C2 41.6 2 81.2 2 122 C43.25 122 84.5 122 127 122 C127 82.4 127 42.8 127 2 C85.75 2 44.5 2 2 2 Z " fill="#FFFFFF" transform="translate(0,0)"/>
<path d="M0 0 C2.8125 1 2.8125 1 3.97409058 3.21720886 C4.85701405 6.14774799 5.05385756 8.47016173 5.03955078 11.5246582 C5.03939972 12.60540115 5.03924866 13.6861441 5.03909302 14.79963684 C5.02877045 15.9550145 5.01844788 17.11039215 5.0078125 18.30078125 C5.0049826 19.49229294 5.00215271 20.68380463 4.99923706 21.91142273 C4.98805433 25.71188456 4.9629528 29.51210956 4.9375 33.3125 C4.92746775 35.89127263 4.91834233 38.47004897 4.91015625 41.04882812 C4.8881212 47.36596603 4.85466232 53.68296609 4.8125 60 C-1.53669168 53.93371696 -1.33194886 46.44610559 -1.57226562 37.99804688 C-1.60765049 36.19603999 -1.63884754 34.39394637 -1.66601562 32.59179688 C-1.83422664 26.99160101 -2.62269216 22.99966543 -5.1875 18 C-10.73437392 18.43642917 -14.42982852 20.01735825 -18.9375 23.125 C-20.9938543 24.53197926 -23.00504493 25.77900487 -25.1875 27 C-26.1775 26.67 -27.1675 26.34 -28.1875 26 C-25.35297285 15.92168125 -13.8266642 6.83463166 -5.55078125 1.20703125 C-3.1875 0 -3.1875 0 0 0 Z " fill="#EFEFEF" transform="translate(101.1875,24)"/>
</svg>
