<?xml version="1.0" standalone="no"?>
<!DOCTYPE svg PUBLIC "-//W3C//DTD SVG 20010904//EN"
 "http://www.w3.org/TR/2001/REC-SVG-20010904/DTD/svg10.dtd">
<svg version="1.0" xmlns="http://www.w3.org/2000/svg"
 width="300.000000pt" height="83.000000pt" viewBox="0 0 300.000000 83.000000"
 preserveAspectRatio="xMidYMid meet">
<metadata>
Created by potrace 1.10, written by Peter Selinger 2001-2011
</metadata>
<g transform="translate(0.000000,83.000000) scale(0.100000,-0.100000)"
fill="#000000" stroke="none">
<path d="M986 783 c-3 -3 -6 -172 -6 -375 0 -320 2 -368 15 -368 13 0 15 48
15 369 0 204 -4 372 -9 375 -4 3 -11 3 -15 -1z"/>
<path d="M120 410 l0 -360 375 0 375 0 0 360 0 360 -375 0 -375 0 0 -360z
m710 0 l0 -310 -332 0 -333 0 2 312 c2 172 3 313 3 313 0 0 148 -1 330 -3
l330 -3 0 -309z"/>
<path d="M210 417 l0 -267 55 0 55 0 0 129 0 129 128 -130 127 -129 83 3 82 3
-265 265 -265 265 0 -268z m235 -19 c97 -95 181 -180 186 -190 8 -15 6 -18
-16 -18 -19 0 -53 28 -136 110 -129 128 -138 134 -167 115 -18 -13 -21 -27
-24 -114 -3 -100 -8 -118 -27 -106 -14 8 -15 375 -2 375 5 0 88 -77 186 -172z"/>
<path d="M577 582 c-48 -48 -87 -90 -87 -94 0 -4 17 -23 37 -43 l38 -36 53 55
c30 31 54 56 55 56 1 0 1 -53 -1 -117 l-4 -118 56 -55 56 -54 0 247 0 247 -58
0 -57 0 -88 -88z m152 49 c12 -8 14 -42 13 -178 -1 -92 -1 -170 -2 -173 0 -3
-7 4 -15 14 -11 14 -15 46 -15 111 0 66 -4 97 -16 113 -20 29 -28 28 -86 -14
-37 -28 -52 -34 -61 -25 -18 18 123 156 163 160 3 0 11 -3 19 -8z"/>
<path d="M1498 585 c-79 -44 -89 -229 -16 -290 35 -30 105 -34 143 -9 70 46
74 228 7 288 -28 25 -99 31 -134 11z m104 -67 c6 -13 12 -53 12 -90 0 -74 -19
-108 -60 -108 -36 0 -54 36 -54 110 0 79 17 110 60 110 20 0 33 -7 42 -22z"/>
<path d="M1691 594 c2 -5 21 -42 42 -81 l37 -73 -40 -81 c-22 -45 -40 -83 -40
-85 0 -2 15 -4 33 -4 29 1 34 5 58 58 l26 57 26 -57 c24 -55 28 -58 61 -58
l36 0 -41 83 -41 82 36 76 c20 42 36 78 36 80 0 3 -15 3 -34 1 -31 -4 -36 -9
-52 -53 -10 -27 -21 -49 -24 -49 -3 0 -14 23 -25 50 -15 39 -24 50 -41 50 -12
0 -30 3 -40 7 -9 3 -15 2 -13 -3z"/>
<path d="M2258 592 c-30 -4 -31 -8 -49 -136 -14 -100 -17 -96 -44 42 l-17 92
-32 0 -32 0 -18 -102 c-11 -57 -22 -106 -26 -111 -3 -4 -12 42 -20 103 l-13
110 -32 0 -33 0 13 -62 c7 -35 21 -107 30 -160 l17 -98 33 0 c38 0 37 -3 60
123 11 54 22 92 25 85 4 -7 15 -57 24 -110 l18 -98 33 0 32 0 32 161 c18 88
31 162 29 163 -2 1 -15 0 -30 -2z"/>
<path d="M2740 433 l0 -163 86 0 c85 0 86 0 80 22 -3 13 -6 26 -6 31 0 4 -22
7 -50 7 l-50 0 0 133 0 132 -30 0 -30 0 0 -162z"/>
<path d="M1110 446 c0 -79 -3 -151 -6 -160 -5 -13 1 -16 27 -16 l34 0 -2 117
-2 118 32 -98 c29 -89 34 -97 56 -95 20 3 27 15 50 90 15 48 30 91 35 95 4 4
5 -45 1 -109 l-7 -118 31 0 31 0 0 160 0 160 -42 0 -43 0 -24 -83 c-13 -45
-26 -86 -29 -91 -3 -5 -16 29 -29 74 -13 46 -26 87 -29 92 -3 4 -23 8 -45 8
l-39 0 0 -144z"/>
<path d="M2320 430 l0 -160 90 0 90 0 0 31 0 31 -57 -4 -58 -3 -3 43 -3 44 53
-3 c51 -3 53 -2 56 24 3 26 2 27 -52 27 l-56 0 0 40 0 40 55 0 c52 0 55 1 55
25 0 25 -1 25 -85 25 l-85 0 0 -160z"/>
<path d="M2540 430 l0 -160 85 0 85 0 0 30 c0 30 0 30 -56 30 l-55 0 3 130 3
130 -32 0 -33 0 0 -160z"/>
</g>
</svg>
